<svg width="34" height="34" viewBox="0 0 34 34" fill="none" xmlns="http://www.w3.org/2000/svg">
<path d="M33 19.1286V31.0258C33 32.2061 32.0431 33.163 30.8628 33.163H21.744M33 15.4241V12.735C33 12.0127 32.6351 11.3392 32.03 10.9447L18.0114 1.80482C17.294 1.33706 16.3666 1.34278 15.655 1.81934L2.03222 10.9423C1.43979 11.339 1.08423 12.005 1.08423 12.7181V31.0258C1.08423 32.2061 2.04109 33.163 3.22144 33.163H21.744M21.744 33.163V24.0442C21.744 22.8639 20.7871 21.907 19.6068 21.907H14.5487C13.3683 21.907 12.4115 22.8639 12.4115 24.0442V28.8886" stroke="#E5B8F4" stroke-width="1.14214" stroke-linecap="round" stroke-linejoin="round"/>
</svg>
