<svg width="77" height="79" viewBox="0 0 77 79" fill="none" xmlns="http://www.w3.org/2000/svg">
<path d="M3.58985 7.09376C2.40972 8.37222 1.67399 10.7299 1.30069 12.2407C1.07122 13.1694 1 14.1253 1 15.0819V46.2461C1 53.3137 6.72936 59.043 13.7969 59.043H22.0235V74.5625C22.0235 76.1946 23.9996 77.0087 25.1492 75.8503L41.8282 59.043H62.6993C69.7668 59.043 75.4962 53.3137 75.4962 46.2461V13.7969C75.4962 6.72937 69.7668 1 62.6993 1H13.9492C13.9492 1 13.9492 1 13.9492 1C13.9492 1 9.37899 1 6.6368 3.74219" stroke="#2D033B" stroke-opacity="0.5" stroke-width="1.4" stroke-linecap="round"/>
<path d="M47.3126 38.3242L38.4766 47.3125L21.5665 30.8594C20.1446 28.7773 17.8493 22.968 22.4805 18.8242C28.2696 13.6445 34.8204 16.9961 37.5626 21.2617C37.8165 21.4649 38.4767 21.7493 39.086 21.2617C39.8478 20.6523 45.0274 12.1211 54.0157 18.8242C56.3009 21.2617 58.4337 25.9844 54.7775 30.8594L50.5118 35.125" stroke="#2D033B" stroke-opacity="0.5" stroke-width="1.4" stroke-linecap="round"/>
</svg>
